<svg id="Layer_5" enable-background="new 0 0 64 64" height="512" viewBox="0 0 64 64" width="512" xmlns="http://www.w3.org/2000/svg"><g><g><g><path d="m60 62h-56c-1.105 0-2-.895-2-2v-32h60v32c0 1.105-.895 2-2 2z" fill="#e6e9ed"/></g><g><path d="m39 16-11 11-.25 1h-25.75v-10c0-1.1.9-2 2-2z" fill="#ff826e"/></g><g><path d="m62 18v10h-17l3-3 3-3 3-3 .38.38c.4.4.94.62 1.5.62.58 0 1.12-.24 1.5-.62s.62-.92.62-1.5c0-.56-.22-1.1-.62-1.5l-.38-.38h3c1.1 0 2 .9 2 2z" fill="#ff826e"/></g><g><path d="m22 20h4v4h-4z" fill="#e6e9ed"/></g><g><path d="m14 20h4v4h-4z" fill="#e6e9ed"/></g><g><path d="m6 20h4v4h-4z" fill="#e6e9ed"/></g><g><circle cx="9" cy="35" fill="#fcd770" r="3"/></g><g><path d="m56 55.5v1c0 .83-.67 1.5-1.5 1.5h-30c-.83 0-1.5-.67-1.5-1.5s-.67-1.5-1.5-1.5h-19.5v-5h4 20 11 3v2.5c0 .83.67 1.5 1.5 1.5h13c.83 0 1.5.67 1.5 1.5z" fill="#a0d468"/></g><g><path d="m21.5 43.25 4.5 6.75h-20l6.89-10.34c.69-1.04 1.86-1.66 3.11-1.66s2.42.62 3.11 1.66z" fill="#b4dd7f"/></g><g><path d="m30.11 39.66 6.89 10.34h-11l-4.5-6.75 2.39-3.59c.14-.21.3-.4.48-.58.07.11.16.21.25.3.38.38.92.62 1.5.62.56 0 1.1-.22 1.5-.62l1.01-1.01c.59.29 1.1.73 1.48 1.29z" fill="#b4dd7f"/></g><g><path d="m62 8.36c0 1.69-.67 3.31-1.86 4.5l-3.14 3.14-9-9 3.14-3.14c1.19-1.19 2.81-1.86 4.5-1.86 1.76 0 3.34.71 4.5 1.86 1.15 1.16 1.86 2.74 1.86 4.5z" fill="#aab2bd"/></g><g><path d="m57.38 16.38c.4.4.62.94.62 1.5 0 .58-.24 1.12-.62 1.5s-.92.62-1.5.62c-.56 0-1.1-.22-1.5-.62l-.38-.38-9-9-.38-.38c-.4-.4-.62-.94-.62-1.5 0-.58.24-1.12.62-1.5s.92-.62 1.5-.62c.56 0 1.1.22 1.5.62l.38.38 9 9z" fill="#ccd1d9"/></g><g><path d="m51 22-3 3-3 3-3 3-5 5-9-9 11-11 6-6 9 9z" fill="#a0d468"/></g><g><path d="m37 36-8 2-.37.37-1.01 1.01c-.4.4-.94.62-1.5.62-.58 0-1.12-.24-1.5-.62-.09-.09-.18-.19-.25-.3-.23-.34-.37-.76-.37-1.2 0-.56.22-1.1.62-1.5l1.38-1.38 1.75-7 .25-1z" fill="#b4dd7f"/></g></g><g><path d="m60 15h-.586l1.429-1.429c1.391-1.391 2.157-3.24 2.157-5.207 0-4.061-3.304-7.364-7.364-7.364-1.967 0-3.816.766-5.207 2.157l-2.462 2.462c-.533-.392-1.18-.619-1.846-.619-1.721 0-3.121 1.4-3.121 3.121 0 .676.223 1.314.618 1.847l-5.032 5.032h-34.586c-1.654 0-3 1.346-3 3v42c0 1.654 1.346 3 3 3h56c1.654 0 3-1.346 3-3v-42c0-1.654-1.346-3-3-3zm1 3v9h-13.586l6.618-6.619c.534.392 1.181.619 1.847.619 1.721 0 3.121-1.4 3.121-3.121 0-.304-.057-.596-.14-.879h1.14c.552 0 1 .449 1 1zm-19.5 37h13c.275 0 .5.225.5.5v1c0 .275-.225.5-.5.5h-30c-.275 0-.5-.225-.5-.5 0-1.379-1.121-2.5-2.5-2.5h-18.5v-3h36v1.5c0 1.379 1.121 2.5 2.5 2.5zm11.086-36-1.586 1.586-5.293-5.293-1.414 1.414 5.293 5.293-1.586 1.586-3.293-3.293-1.414 1.414 3.293 3.293-1.586 1.586-5.293-5.293-1.414 1.414 5.293 5.293-1.586 1.586-3.293-3.293-1.414 1.414 3.293 3.293-3.586 3.585-7.586-7.585 15.586-15.586zm-28.454 30h-16.264l5.854-8.781c.509-.763 1.361-1.219 2.278-1.219s1.769.456 2.277 1.219zm2.403 0-3.833-5.75 1.808-2.712c.472.287 1.02.462 1.611.462.822 0 1.626-.333 2.207-.914l.436-.435c.195.165.371.353.514.568l5.854 8.781zm1.953-11.903-1.574 1.575c-.209.209-.498.328-.793.328-.618 0-1.121-.503-1.121-1.121 0-.295.119-.584.328-.793l1.575-1.574 1.639-6.556 6.502 6.502zm-3.391-2.609-1.183 1.184c-.581.581-.914 1.385-.914 2.207 0 .374.077.728.198 1.061-.043.059-.1.109-.14.169l-1.558 2.338-1.559-2.338c-.88-1.321-2.353-2.109-3.941-2.109s-3.061.788-3.941 2.109l-6.594 9.891h-2.465v-20h23.469zm12.438 14.512-6.594-9.891c-.111-.166-.233-.323-.363-.473l6.933-1.733 7.904-7.903h15.585v20zm14.308-44.429c1.012-1.013 2.36-1.571 3.793-1.571 2.958 0 5.364 2.406 5.364 5.364 0 1.433-.558 2.78-1.571 3.793l-2.429 2.429-7.586-7.586zm-5.722 2.429c.295 0 .584.12.793.328l9.758 9.758c.212.212.328.493.328.793 0 .618-.503 1.121-1.121 1.121-.295 0-.584-.12-.793-.328l-9.758-9.758c-.212-.212-.328-.493-.328-.793 0-.618.503-1.121 1.121-1.121zm-42.121 10h32.586l-9.489 9.489-.128.511h-23.969v-9c0-.551.448-1 1-1zm56 44h-56c-.552 0-1-.448-1-1v-4h18.5c.275 0 .5.225.5.5 0 1.379 1.121 2.5 2.5 2.5h30c1.379 0 2.5-1.121 2.5-2.5v-1c0-1.379-1.121-2.5-2.5-2.5h-13c-.275 0-.5-.225-.5-.5v-1.5h20v9c0 .552-.448 1-1 1z"/><path d="m11 19h-6v6h6zm-2 4h-2v-2h2z"/><path d="m19 19h-6v6h6zm-2 4h-2v-2h2z"/><path d="m27 19h-6v6h6zm-2 4h-2v-2h2z"/><path d="m9 39c2.206 0 4-1.794 4-4s-1.794-4-4-4-4 1.794-4 4 1.794 4 4 4zm0-6c1.103 0 2 .897 2 2s-.897 2-2 2-2-.897-2-2 .897-2 2-2z"/><path d="m45 31h14v2h-14z"/><path d="m45 35h14v2h-14z"/><path d="m45 39h14v2h-14z"/><path d="m45 43h14v2h-14z"/></g></g></svg>